<svg height="210" node-id="1" sillyvg="true" template-height="210" template-width="371" version="1.1" viewBox="0 0 371 210" width="371" xmlns="http://www.w3.org/2000/svg" xmlns:xlink="http://www.w3.org/1999/xlink"><defs node-id="66"><linearGradient gradientUnits="objectBoundingBox" id="linearGradient-1" node-id="5" spreadMethod="pad" x1="-0.47019014" x2="0.68868846" y1="-1.8596389" y2="1"><stop offset="0" stop-color="#d2d2d2"></stop><stop offset="1" stop-color="#d2d2d2" stop-opacity="0"></stop></linearGradient><linearGradient gradientUnits="objectBoundingBox" id="linearGradient-2" node-id="8" spreadMethod="pad" x1="1.1899998" x2="0.5450187" y1="-1.1086411" y2="0.5558718"><stop offset="0" stop-color="#d2d2d2"></stop><stop offset="1" stop-color="#d2d2d2" stop-opacity="0"></stop></linearGradient><linearGradient gradientUnits="objectBoundingBox" id="linearGradient-3" node-id="11" spreadMethod="pad" x1="0.5" x2="0.5" y1="-2.211569" y2="1"><stop offset="0" stop-color="#d2d2d2"></stop><stop offset="1" stop-color="#d2d2d2" stop-opacity="0"></stop></linearGradient><linearGradient gradientUnits="objectBoundingBox" id="linearGradient-4" node-id="14" spreadMethod="pad" x1="1.0008096" x2="0.38826305" y1="-0.9778046" y2="1.0473608"><stop offset="0" stop-color="#d2d2d2"></stop><stop offset="1" stop-color="#d2d2d2" stop-opacity="0"></stop></linearGradient><linearGradient gradientUnits="objectBoundingBox" id="linearGradient-5" node-id="17" spreadMethod="pad" x1="0.5" x2="0.5" y1="-2.301163" y2="1"><stop offset="0" stop-color="#d2d2d2"></stop><stop offset="1" stop-color="#d2d2d2" stop-opacity="0"></stop></linearGradient><linearGradient gradientUnits="objectBoundingBox" id="linearGradient-6" node-id="20" spreadMethod="pad" x1="0.5" x2="0.5" y1="-1.6920329" y2="1"><stop offset="0" stop-color="#d2d2d2"></stop><stop offset="1" stop-color="#d2d2d2" stop-opacity="0"></stop></linearGradient><linearGradient gradientUnits="objectBoundingBox" id="linearGradient-7" node-id="23" spreadMethod="pad" x1="0.49999997" x2="0.49999997" y1="0" y2="0.99999994"><stop offset="0" stop-color="#d1d1d1"></stop><stop offset="1" stop-color="#eaeaea"></stop></linearGradient><linearGradient gradientUnits="objectBoundingBox" id="linearGradient-8" node-id="26" spreadMethod="pad" x1="0.49999997" x2="0.8393092" y1="0.15252078" y2="0.5535193"><stop offset="0" stop-color="#f2f1f1"></stop><stop offset="1" stop-color="#f6f6f6"></stop></linearGradient><linearGradient gradientUnits="objectBoundingBox" id="linearGradient-9" node-id="29" spreadMethod="pad" x1="0.49999997" x2="0.49999997" y1="0" y2="0.99999994"><stop offset="0" stop-color="#e2e1e1"></stop><stop offset="1" stop-color="#fdfdfd"></stop></linearGradient><linearGradient gradientUnits="objectBoundingBox" id="linearGradient-10" node-id="32" spreadMethod="pad" x1="0.49999997" x2="0.47684595" y1="0.4851969" y2="0.5420419"><stop offset="0" stop-color="#ffffff"></stop><stop offset="1" stop-color="#f7f7f7"></stop></linearGradient><linearGradient gradientUnits="objectBoundingBox" id="linearGradient-11" node-id="35" spreadMethod="pad" x1="0.49999997" x2="0.49999997" y1="0" y2="0.99999994"><stop offset="0" stop-color="#eaeaea"></stop><stop offset="1" stop-color="#fcfcfc" stop-opacity="0"></stop></linearGradient><linearGradient gradientUnits="objectBoundingBox" id="linearGradient-12" node-id="38" spreadMethod="pad" x1="0.49999997" x2="0.49999997" y1="0" y2="0.99999994"><stop offset="0" stop-color="#56feaa"></stop><stop offset="1" stop-color="#56feaa"></stop></linearGradient><linearGradient gradientUnits="objectBoundingBox" id="linearGradient-13" node-id="41" spreadMethod="pad" x1="0.49999997" x2="0.49999997" y1="0" y2="0.99999994"><stop offset="0" stop-color="#56feaa"></stop><stop offset="1" stop-color="#56feaa"></stop></linearGradient></defs><g node-id="145"><g node-id="146"><g node-id="147"><path d="M 73.26 159.55 L 70.32 157.97 L 67.38 155.84 L 64.69 153.33 L 62.35 150.49 L 60.48 147.37 L 59.26 144.11 L 58.84 141.86 L 58.82 139.61 L 59.20 137.33 L 60.12 137.25 L 60.99 137.44 L 61.76 137.88 L 62.38 138.57 L 63.38 140.06 L 65.80 143.40 L 68.77 146.82 L 70.29 148.10 L 71.41 148.61 L 72.03 148.57 L 72.51 148.11 L 72.87 147.01 L 72.91 144.79 L 72.26 140.28 L 70.16 131.08 L 68.12 121.88 L 67.42 117.22 L 67.07 112.47 L 67.23 108.99 L 67.74 106.07 L 68.57 103.62 L 69.78 101.35 L 71.15 99.62 L 72.67 98.35 L 74.42 97.47 L 76.19 97.10 L 78.04 97.20 L 79.80 97.78 L 81.55 98.92 L 83.34 100.72 L 84.76 102.84 L 86.07 105.70 L 87.23 109.47 L 87.81 112.84 L 88.86 118.59 L 89.59 121.76 L 90.45 124.74 L 91.51 127.46 L 92.62 129.31 L 93.54 130.18 L 94.45 130.49 L 95.44 130.32 L 96.36 129.64 L 97.02 128.71 L 98.23 126.39 L 99.30 123.89 L 100.40 121.42 L 101.65 119.26 L 102.68 118.01 L 103.92 117.06 L 105.42 116.37 L 106.87 116.10 L 108.26 116.16 L 109.64 116.53 L 111.58 117.52 L 113.40 118.98 L 114.99 120.73 L 116.30 122.62 L 117.68 125.18 L 119.17 128.53 L 120.47 132.13 L 121.58 136.07 L 122.36 140.10 L 122.70 144.04 L 122.64 146.66 L 122.29 149.06 L 121.67 151.28 L 120.71 153.34 L 119.39 155.10 L 117.67 156.60 L 115.64 157.80 L 113.22 158.91 L 110.36 159.90 L 105.88 161.04 L 100.90 161.86 L 95.79 162.34 L 90.66 162.48 L 85.61 162.27 L 81.02 161.74 L 76.71 160.82 L 73.35 159.64 L 73.26 159.55 Z" fill="url(#linearGradient-1)" fill-rule="nonzero" group-id="1,2,3" id="路径" node-id="48" stroke="none" target-height="65.38" target-width="63.879997" target-x="58.82" target-y="97.1"></path><path d="M 273.19 180.43 L 272.07 177.29 L 271.31 173.74 L 271.00 170.07 L 271.17 166.39 L 271.58 163.97 L 272.25 161.71 L 273.16 159.58 L 274.37 157.63 L 275.87 155.95 L 277.69 154.50 L 278.43 155.07 L 278.94 155.81 L 279.20 156.67 L 279.19 157.60 L 278.92 159.38 L 278.48 163.48 L 278.38 168.01 L 278.65 169.98 L 279.14 171.11 L 279.63 171.50 L 280.29 171.48 L 281.30 170.90 L 282.81 169.28 L 285.36 165.50 L 290.02 157.26 L 294.69 149.07 L 297.27 145.15 L 300.17 141.39 L 302.61 138.90 L 304.95 137.08 L 307.21 135.81 L 309.63 134.93 L 311.80 134.56 L 313.78 134.64 L 315.67 135.16 L 317.24 136.07 L 318.54 137.39 L 319.46 139.01 L 320.00 141.03 L 320.12 143.57 L 319.76 146.10 L 318.81 149.10 L 317.15 152.68 L 315.32 155.57 L 312.25 160.54 L 310.66 163.38 L 309.29 166.16 L 308.25 168.90 L 307.84 171.01 L 307.93 172.28 L 308.40 173.12 L 309.25 173.67 L 310.38 173.77 L 311.49 173.53 L 313.94 172.62 L 316.42 171.48 L 318.90 170.39 L 321.29 169.62 L 322.89 169.38 L 324.46 169.49 L 326.04 169.97 L 327.29 170.75 L 328.28 171.72 L 329.06 172.92 L 329.83 174.96 L 330.20 177.26 L 330.21 179.62 L 329.91 181.90 L 328.94 185.25 L 327.34 188.63 L 325.21 191.77 L 322.55 194.58 L 320.53 196.19 L 318.33 197.51 L 315.93 198.55 L 313.41 199.23 L 310.73 199.50 L 307.84 199.36 L 303.26 198.54 L 298.08 197.20 L 292.90 195.44 L 287.81 193.24 L 284.52 191.51 L 281.56 189.64 L 278.89 187.63 L 276.48 185.35 L 274.61 182.98 L 273.22 180.52 L 273.19 180.43 Z" fill="url(#linearGradient-2)" fill-rule="nonzero" group-id="1,2,3" id="路径" node-id="49" stroke="none" target-height="64.94" target-width="59.20999" target-x="271" target-y="134.56"></path><path d="M 370.52 199.36 L 361.69 193.58 L 352.37 188.06 L 342.54 182.79 L 332.18 177.78 L 321.73 173.23 L 310.86 168.98 L 299.54 165.06 L 287.77 161.45 L 275.97 158.30 L 263.82 155.53 L 251.31 153.13 L 238.42 151.12 L 225.55 149.56 L 212.41 148.43 L 198.99 147.75 L 185.26 147.50 L 171.53 147.75 L 158.11 148.43 L 144.96 149.56 L 132.10 151.12 L 119.21 153.13 L 106.70 155.53 L 94.55 158.30 L 82.75 161.45 L 70.98 165.06 L 59.66 168.98 L 48.79 173.23 L 38.33 177.78 L 27.98 182.79 L 18.15 188.06 L 8.83 193.58 L 0.00 199.36 L 370.52 199.36 Z" fill="url(#linearGradient-3)" fill-rule="nonzero" group-id="1,2,3" id="路径" node-id="50" stroke="none" target-height="51.86" target-width="370.52" target-x="0" target-y="147.5"></path><path d="M 293.47 103.06 L 292.10 105.02 L 290.97 107.20 L 290.16 109.52 L 289.75 111.90 L 289.80 114.31 L 290.40 116.70 L 291.20 118.11 L 292.20 119.15 L 293.27 120.11 L 294.22 121.17 L 294.84 122.45 L 295.04 124.46 L 294.61 126.67 L 293.86 128.76 L 292.79 130.75 L 290.55 134.31 L 288.01 137.63 L 285.19 140.74 L 286.81 142.39 L 287.92 144.36 L 288.49 146.55 L 288.48 148.86 L 287.94 151.12 L 287.05 153.25 L 285.84 155.21 L 284.32 156.97 L 283.20 158.02 L 281.85 158.75 L 280.43 158.91 L 279.01 158.75 L 274.46 157.76 L 270.05 156.35 L 265.77 154.52 L 263.82 153.49 L 262.03 152.23 L 260.56 150.70 L 259.59 148.85 L 259.29 147.33 L 259.37 146.26 L 259.73 145.51 L 260.68 144.55 L 261.96 143.77 L 262.42 143.51 L 263.73 142.68 L 264.77 141.57 L 265.52 139.87 L 265.98 137.99 L 266.56 134.23 L 266.93 130.07 L 267.20 127.79 L 267.76 125.74 L 268.40 124.56 L 269.33 123.65 L 270.60 123.00 L 273.22 122.53 L 275.83 122.05 L 277.51 121.26 L 278.88 120.20 L 279.99 118.86 L 281.34 116.53 L 282.50 113.93 L 282.76 113.29 L 284.11 110.36 L 284.89 109.00 L 285.79 107.79 L 286.89 106.81 L 288.33 105.94 L 291.34 104.48 L 292.67 103.74 L 293.47 103.06 Z M 282.80 123.79 L 281.42 125.52 L 278.15 130.16 L 276.26 133.25 L 274.28 136.93 L 272.53 140.84 L 271.11 145.02 L 270.42 147.89 L 270.03 150.76 L 269.94 153.63 L 274.23 153.63 L 274.59 150.73 L 275.89 143.42 L 276.98 138.85 L 278.51 133.75 L 280.42 128.68 L 282.80 123.79 Z" fill="url(#linearGradient-4)" fill-rule="nonzero" group-id="1,2,3" id="形状结合" node-id="51" stroke="none" target-height="55.850006" target-width="35.75" target-x="259.29" target-y="103.06"></path><path d="M 104.14 22.01 L 104.14 22.01 L 103.89 19.67 L 103.12 17.54 L 101.90 15.66 L 100.27 14.10 L 98.32 12.96 L 96.07 12.28 L 93.72 12.15 L 91.50 12.57 L 89.44 13.48 L 87.65 14.84 L 86.21 16.58 L 85.19 18.70 L 83.00 18.96 L 81.02 19.76 L 79.31 21.05 L 77.97 22.79 L 77.15 24.83 L 76.90 26.95 L 77.22 29.07 L 78.11 31.08 L 79.50 32.78 L 81.25 34.01 L 83.26 34.75 L 85.44 34.94 L 103.33 34.94 L 105.00 34.69 L 106.45 34.10 L 107.73 33.15 L 108.74 31.92 L 109.40 30.50 L 109.73 28.85 L 109.61 27.16 L 109.12 25.67 L 108.27 24.33 L 107.13 23.23 L 105.76 22.46 L 104.14 22.01 L 104.14 22.01 Z" fill="url(#linearGradient-5)" fill-rule="nonzero" group-id="1,2,3" id="路径" node-id="52" stroke="none" target-height="22.789999" target-width="32.83" target-x="76.9" target-y="12.15"></path><path d="M 178.07 12.21 L 178.07 12.15 L 177.91 10.19 L 177.47 8.36 L 176.75 6.64 L 175.21 4.32 L 173.18 2.41 L 171.61 1.41 L 169.88 0.67 L 167.97 0.18 L 166.02 0.00 L 164.14 0.13 L 162.32 0.54 L 159.77 1.67 L 157.55 3.34 L 156.29 4.72 L 155.27 6.29 L 154.46 8.08 L 152.61 8.29 L 150.91 8.78 L 149.35 9.55 L 147.94 10.58 L 146.75 11.81 L 145.77 13.25 L 145.04 14.84 L 144.61 16.54 L 144.46 18.40 L 144.66 20.25 L 145.15 21.94 L 145.93 23.50 L 146.96 24.91 L 148.19 26.10 L 149.63 27.09 L 151.22 27.81 L 152.92 28.25 L 154.78 28.39 L 177.00 28.39 L 179.08 28.13 L 180.94 27.38 L 182.55 26.20 L 183.83 24.67 L 184.70 22.86 L 185.10 20.80 L 184.96 18.71 L 184.32 16.80 L 183.25 15.13 L 181.80 13.76 L 180.05 12.78 L 178.01 12.26 L 178.07 12.21 Z" fill="url(#linearGradient-6)" fill-rule="nonzero" group-id="1,2,3" id="路径" node-id="53" stroke="none" target-height="28.39" target-width="40.64" target-x="144.46" target-y="0"></path></g><g node-id="148"><g node-id="149"><path d="M 178.07 40.43 L 179.33 40.27 L 180.48 40.43 L 181.57 40.89 L 182.52 41.61 L 183.23 42.53 L 183.73 43.70 L 183.87 45.32 L 183.47 46.81 L 182.60 48.09 L 181.33 49.03 L 183.03 55.37 L 181.24 55.85 L 179.54 49.51 L 177.97 49.33 L 176.58 48.66 L 175.49 47.56 L 174.80 46.09 L 174.64 44.83 L 174.80 43.67 L 175.26 42.58 L 175.98 41.64 L 176.90 40.92 L 178.07 40.43 Z" fill="url(#linearGradient-7)" fill-rule="evenodd" group-id="1,2,4,5" id="形状结合" node-id="56" stroke="none" target-height="15.579998" target-width="9.229996" target-x="174.64" target-y="40.27"></path><path d="M 227.07 73.26 L 227.73 76.54 L 227.99 79.79 L 227.88 83.00 L 227.38 86.22 L 226.18 90.39 L 224.40 94.41 L 222.00 98.31 L 219.14 101.89 L 215.78 105.19 L 211.88 108.21 L 207.66 110.77 L 203.03 112.89 L 197.94 114.58 L 192.69 115.66 L 187.61 116.14 L 182.68 116.03 L 177.79 115.37 L 173.23 114.19 L 168.96 112.53 L 164.94 110.35 L 161.38 107.75 L 158.26 104.74 L 156.22 102.21 L 154.51 99.48 L 153.12 96.54 L 152.05 93.36 L 151.39 90.07 L 151.12 86.83 L 151.24 83.62 L 151.73 80.40 L 152.94 76.23 L 154.72 72.21 L 157.11 68.31 L 159.98 64.73 L 163.34 61.43 L 167.24 58.41 L 171.46 55.85 L 176.09 53.73 L 181.18 52.04 L 186.43 50.95 L 191.50 50.48 L 196.44 50.59 L 201.32 51.25 L 205.88 52.43 L 210.16 54.09 L 214.18 56.27 L 217.73 58.86 L 220.86 61.88 L 222.90 64.41 L 224.61 67.14 L 225.99 70.08 L 227.07 73.26 Z" fill="url(#linearGradient-8)" fill-rule="evenodd" group-id="1,2,4,5" id="椭圆形" node-id="57" stroke="none" target-height="65.66" target-width="76.87001" target-x="151.12" target-y="50.48"></path><path d="M 271.87 83.28 L 272.19 85.47 L 272.05 87.76 L 271.42 90.18 L 270.22 92.80 L 268.14 95.99 L 265.21 99.40 L 261.29 103.08 L 257.08 106.40 L 252.09 109.82 L 246.22 113.33 L 240.20 116.53 L 233.53 119.68 L 226.15 122.79 L 218.68 125.59 L 210.72 128.21 L 202.24 130.66 L 193.68 132.78 L 185.47 134.48 L 177.60 135.80 L 169.67 136.80 L 162.31 137.40 L 155.50 137.64 L 148.66 137.53 L 142.62 137.07 L 137.32 136.30 L 132.08 135.07 L 127.84 133.58 L 124.44 131.86 L 122.10 130.19 L 120.34 128.41 L 119.08 126.50 L 118.26 124.44 L 117.94 122.24 L 118.08 119.96 L 118.71 117.53 L 119.90 114.92 L 121.99 111.73 L 124.91 108.31 L 128.84 104.64 L 133.05 101.32 L 138.04 97.90 L 143.91 94.38 L 149.93 91.19 L 156.60 88.03 L 163.97 84.93 L 171.45 82.13 L 179.41 79.50 L 187.88 77.06 L 196.44 74.94 L 204.65 73.23 L 212.52 71.92 L 220.46 70.92 L 227.82 70.32 L 234.63 70.07 L 241.47 70.18 L 247.50 70.65 L 252.81 71.42 L 258.04 72.64 L 262.28 74.14 L 265.68 75.86 L 268.03 77.52 L 269.79 79.31 L 271.05 81.22 L 271.87 83.28 Z" fill="url(#linearGradient-9)" fill-rule="evenodd" group-id="1,2,4,5" id="椭圆形" node-id="58" stroke="none" target-height="67.57" target-width="154.25" target-x="117.94" target-y="70.07"></path><path d="M 253.24 93.23 L 253.26 92.50 L 253.57 91.77 L 254.26 91.01 L 255.63 90.12 L 257.55 89.48 L 259.56 89.29 L 261.17 89.54 L 262.11 89.96 L 262.69 90.49 L 263.01 91.15 L 262.99 91.88 L 262.67 92.61 L 261.98 93.38 L 260.61 94.26 L 258.70 94.90 L 256.69 95.09 L 255.08 94.84 L 254.14 94.42 L 253.55 93.89 L 253.24 93.23 Z M 139.04 119.16 L 140.98 118.62 L 142.61 118.59 L 143.61 118.84 L 144.28 119.27 L 144.70 119.86 L 144.81 120.58 L 144.63 121.35 L 144.08 122.23 L 142.89 123.34 L 141.11 124.30 L 139.17 124.84 L 137.54 124.87 L 136.54 124.62 L 135.87 124.19 L 135.45 123.60 L 135.34 122.88 L 135.52 122.11 L 136.07 121.23 L 137.26 120.13 L 139.04 119.16 Z M 210.67 90.61 L 210.70 89.39 L 211.23 88.18 L 212.37 86.90 L 213.81 85.88 L 215.61 85.02 L 217.85 84.35 L 220.16 84.05 L 222.16 84.10 L 223.88 84.46 L 225.45 85.16 L 226.42 86.05 L 226.95 87.15 L 226.91 88.36 L 226.39 89.57 L 225.24 90.85 L 223.81 91.88 L 222.01 92.73 L 219.77 93.40 L 217.45 93.70 L 215.46 93.65 L 213.73 93.30 L 212.17 92.60 L 211.19 91.70 L 210.67 90.61 Z M 170.46 95.14 L 172.73 94.60 L 174.72 94.44 L 176.47 94.61 L 178.11 95.14 L 179.17 95.93 L 179.80 96.96 L 179.90 98.17 L 179.50 99.43 L 178.50 100.83 L 177.18 101.99 L 175.48 103.03 L 173.32 103.93 L 171.04 104.47 L 169.06 104.63 L 167.30 104.46 L 165.67 103.93 L 164.61 103.14 L 163.98 102.11 L 163.88 100.89 L 164.28 99.63 L 165.28 98.24 L 166.60 97.07 L 168.30 96.03 L 170.46 95.14 Z" fill="url(#linearGradient-10)" fill-rule="evenodd" group-id="1,2,4,5" id="形状结合" node-id="59" stroke="none" target-height="40.82" target-width="127.67001" target-x="135.34" target-y="84.05"></path><path d="M 238.18 100.92 L 238.19 102.22 L 237.55 103.73 L 235.99 105.61 L 234.10 107.24 L 231.50 109.06 L 228.04 111.09 L 222.51 113.82 L 215.59 116.68 L 208.20 119.27 L 199.85 121.73 L 191.40 123.77 L 183.70 125.23 L 176.27 126.21 L 170.11 126.61 L 166.11 126.58 L 162.95 126.30 L 160.50 125.84 L 158.21 124.99 L 156.89 124.00 L 156.26 122.87 L 156.25 121.58 L 156.89 120.06 L 158.45 118.19 L 160.34 116.56 L 162.93 114.74 L 166.39 112.71 L 171.92 109.98 L 178.85 107.12 L 186.24 104.53 L 194.58 102.07 L 203.04 100.03 L 210.74 98.57 L 218.16 97.59 L 224.32 97.19 L 228.33 97.22 L 231.49 97.49 L 233.94 97.96 L 236.23 98.81 L 237.54 99.80 L 238.18 100.92 Z" fill="#ffffff" fill-rule="evenodd" group-id="1,2,4,5" id="椭圆形复制-6" node-id="60" stroke="none" target-height="29.419998" target-width="81.94" target-x="156.25" target-y="97.19"></path><path d="M 169.29 114.88 L 141.65 196.11 L 156.20 195.85 L 170.66 194.96 L 185.04 193.44 L 199.35 191.29 L 213.61 188.50 L 227.83 185.07 L 242.02 180.99 L 256.20 176.25 L 270.38 170.84 L 284.56 164.73 L 280.60 160.47 L 222.63 100.54 L 195.26 107.90 L 169.29 114.88 Z" fill="url(#linearGradient-11)" fill-rule="evenodd" group-id="1,2,4,5" id="路径-2" node-id="61" stroke="none" target-height="95.57" target-width="142.91" target-x="141.65" target-y="100.54"></path><g node-id="150"><path d="M 186.32 134.18 L 179.69 153.81 L 182.91 153.60 L 182.47 147.16 L 192.48 146.51 L 192.91 152.95 L 196.70 152.72 L 197.24 160.59 L 193.45 160.83 L 193.88 167.32 L 183.88 167.96 L 183.45 161.48 L 169.27 162.39 L 168.79 155.23 L 175.99 134.84 L 186.32 134.18 Z" fill="url(#linearGradient-12)" fill-rule="nonzero" group-id="1,2,4,5,6" id="路径" node-id="63" stroke="none" target-height="33.780014" target-width="28.450012" target-x="168.79" target-y="134.18"></path><path d="M 217.17 130.81 L 216.92 135.06 L 216.23 138.53 L 215.15 141.34 L 213.73 143.61 L 212.25 145.18 L 210.54 146.40 L 208.58 147.30 L 206.32 147.87 L 203.70 148.08 L 201.05 147.87 L 198.76 147.31 L 196.78 146.42 L 195.06 145.20 L 193.56 143.63 L 192.12 141.37 L 191.01 138.56 L 190.28 135.10 L 189.99 130.85 L 190.23 126.59 L 190.93 123.13 L 192.00 120.32 L 193.42 118.05 L 194.90 116.48 L 196.61 115.26 L 198.58 114.36 L 200.86 113.79 L 203.51 113.57 L 206.14 113.78 L 208.40 114.35 L 210.37 115.24 L 212.09 116.46 L 213.59 118.03 L 215.04 120.29 L 216.14 123.10 L 216.88 126.56 L 217.17 130.81 Z M 200.50 130.83 L 200.71 135.73 L 201.20 138.35 L 201.84 139.67 L 202.64 140.34 L 203.67 140.54 L 204.66 140.34 L 205.45 139.66 L 206.07 138.34 L 206.53 135.71 L 206.69 130.81 L 206.47 125.89 L 205.99 123.27 L 205.36 121.96 L 204.57 121.30 L 203.57 121.11 L 202.54 121.31 L 201.74 121.98 L 201.11 123.29 L 200.65 125.91 L 200.50 130.83 L 200.50 130.83 Z M 232.87 121.75 L 230.17 142.54 L 233.32 141.70 L 231.63 135.40 L 241.39 132.78 L 243.07 139.09 L 246.78 138.09 L 248.85 145.81 L 245.14 146.80 L 246.84 153.15 L 237.08 155.77 L 235.38 149.41 L 221.54 153.12 L 219.66 146.11 L 222.79 124.45 L 232.87 121.75 L 232.87 121.75 Z" fill="url(#linearGradient-13)" fill-rule="nonzero" group-id="1,2,4,5,6" id="形状" node-id="64" stroke="none" target-height="42.200005" target-width="58.86" target-x="189.99" target-y="113.57"></path></g></g></g></g></g></svg>