<svg xmlns="http://www.w3.org/2000/svg" version="1.1" xmlns:xlink="http://www.w3.org/1999/xlink" xmlns:svgjs="http://svgjs.dev/svgjs" width="100%" height="100%" viewBox="0 0 1000 600"><rect width="1000" height="600" x="0" y="0" fill="transparent"/><g><rect width="333.3333333333333" height="333.3333333333333" rx="13.333333333333334" ry="13.333333333333334" y="77.77777014838344" fill="transparent" transform="matrix(2.2499999313354513,0,0,2.2499999313354517,0,-249.99999084472722)" x="55.55555725097656"/><path d="M152.4811096045691 253.21402561383022L152.4811096045691 169.44444236549668L154.94576378156418 169.44444236549668Q159.5025081320551 169.44444236549668 164.3458401775455 170.47615806749468Q169.18917222303588 171.50787376949262 173.23005872252787 174.28777441098708Q177.24228645251986 177.06767505248155 179.70694062951497 181.91100709797195Q182.20025357601003 186.78299791296226 182.20025357601003 194.20561921344748L182.20025357601003 194.20561921344748L182.20025357601003 228.4528487658794Q182.20025357601003 235.87547006636467 179.70694062951497 240.718802111855Q177.24228645251986 245.59079292684535 173.23005872252787 248.37069356833982Q169.18917222303588 251.15059420983428 164.3458401775455 252.18230991183228Q159.5025081320551 253.21402561383022 154.94576378156418 253.21402561383022L154.94576378156418 253.21402561383022L152.4811096045691 253.21402561383022ZM180.3374335585137 265.19339126480634L180.3374335585137 319.2438305416989L177.87277938151863 319.2438305416989Q173.11542364452805 319.2438305416989 168.35806790753753 318.21211483970103Q163.62937094004693 317.18039913770303 159.58848444055496 314.48647480470845Q155.57625671056294 311.82120924121364 153.11160253356783 306.9778771957233Q150.61828958707278 302.10588638073295 150.61828958707278 294.6832650802478L150.61828958707278 294.6832650802478L150.61828958707278 289.9545681127572Q150.61828958707278 282.50328804277194 153.11160253356783 277.6599559972816Q155.57625671056294 272.81662395179126 159.58848444055496 270.0367233102968Q163.62937094004693 267.25682266880233 168.35806790753753 266.22510696680433Q173.11542364452805 265.19339126480634 177.87277938151863 265.19339126480634L177.87277938151863 265.19339126480634L180.3374335585137 265.19339126480634ZM110.18076582265314 189.2476520899573L110.18076582265314 189.2476520899573Q110.18076582265314 185.75128221096432 111.4130929111507 182.2262535624713Q112.64541999964825 178.72988368347825 115.3393443326429 175.83534796398402Q118.03326866563754 172.9408122444898 121.9308613176298 171.19262730499327Q125.85711273912199 169.44444236549668 131.21630263561133 169.44444236549668L131.21630263561133 169.44444236549668Q136.80476268810025 169.44444236549668 140.3011325670933 171.07799222699344Q143.8261612155863 172.74020085799015 145.88959261958217 175.11887872648543Q147.95302402357808 177.49755659498072 148.7554695695765 180.363433544975Q149.58657388507484 183.25796926446924 149.58657388507484 185.75128221096432L149.58657388507484 185.75128221096432Q149.58657388507484 187.18422068596144 149.50059757657502 189.64887486295655Q149.38596249857522 192.1421878094516 148.7554695695765 193.77573767094836L148.7554695695765 193.77573767094836Q147.32253109457935 192.54341058245078 146.0902040060818 191.941576422952Q144.85787691758424 191.31108349395325 142.99505690008795 191.31108349395325L142.99505690008795 191.31108349395325Q137.00537407459984 191.31108349395325 137.00537407459984 198.9343161809381L137.00537407459984 198.9343161809381L137.00537407459984 209.25147320091756Q135.34316544360314 209.68135474341673 132.87851126660803 209.68135474341673L132.87851126660803 209.68135474341673Q129.9839755471138 209.68135474341673 126.0577241256216 208.96488550591815Q122.16013147362935 208.21975749891962 118.63510282513636 205.9557147084241Q115.1387329461433 203.69167191792863 112.64541999964825 199.76542049643646Q110.18076582265314 195.83916907494424 110.18076582265314 189.2476520899573ZM142.36456397108918 252.81280284083098L142.36456397108918 319.2438305416989L139.89990979409407 319.2438305416989Q135.14255405710355 319.2438305416989 130.41385708961295 318.0115034532014Q125.6565013526224 316.77917636470386 121.64427362263037 313.77000556720986Q117.6033871231384 310.78949353921575 115.1387329461433 305.7168913377259Q112.64541999964825 300.6729479057359 112.64541999964825 293.2503266052506L112.64541999964825 293.2503266052506L112.64541999964825 277.57397968878183Q112.64541999964825 270.12269961879656 115.1387329461433 265.2793675733062Q117.6033871231384 260.4360355278159 121.64427362263037 257.6561348863214Q125.6565013526224 254.87623424482686 130.41385708961295 253.84451854282898Q135.14255405710355 252.81280284083098 139.89990979409407 252.81280284083098L139.89990979409407 252.81280284083098L142.36456397108918 252.81280284083098ZM207.99314612595873 319.2438305416989L207.99314612595873 169.44444236549668Q212.9511132494489 169.44444236549668 218.19566806793847 170.67676945399427Q223.468881655928 171.9090965424918 227.7963558504194 174.68899718398632Q232.1238300449108 177.49755659498072 234.90373068640528 182.34088864047106Q237.7122900973997 187.18422068596144 237.7122900973997 194.20561921344748L237.7122900973997 194.20561921344748L237.7122900973997 294.6832650802478Q237.7122900973997 302.3351565367326 235.33361222890443 307.0638535042232Q232.95493436040914 311.82120924121364 229.14331801691674 314.48647480470845Q225.33170167342428 317.18039913770303 220.25909947193438 318.21211483970103Q215.21515603994442 319.2438305416989 210.05657752995467 319.2438305416989L210.05657752995467 319.2438305416989L207.99314612595873 319.2438305416989ZM304.5445405712669 242.49564582085148L304.5445405712669 169.44444236549668L307.03785351776196 169.44444236549668Q311.5659390987529 169.44444236549668 316.4092711442433 170.47615806749468Q321.28126195923363 171.50787376949262 325.2934896892256 174.28777441098708Q329.3057174192177 177.06767505248155 331.7990303657127 181.91100709797195Q334.2636845427078 186.78299791296226 334.2636845427078 194.20561921344748L334.2636845427078 194.20561921344748L334.2636845427078 217.73446897290071Q334.2636845427078 225.157090273386 331.7990303657127 230.00042231887633Q329.3057174192177 234.84375436436673 325.2934896892256 237.6236550058612Q321.28126195923363 240.4322144168556 316.4092711442433 241.46393011885354Q311.5659390987529 242.49564582085148 307.03785351776196 242.49564582085148L307.03785351776196 242.49564582085148L304.5445405712669 242.49564582085148ZM259.3783198393566 189.2476520899573L259.3783198393566 189.2476520899573Q259.3783198393566 185.75128221096432 260.6106469278542 182.2262535624713Q261.8429740163517 178.72988368347825 264.5368983493464 175.83534796398402Q267.2021639128411 172.9408122444898 271.1284153343333 171.19262730499327Q275.05466675582545 169.44444236549668 280.41385665231485 169.44444236549668L280.41385665231485 169.44444236549668Q285.9736579353038 169.44444236549668 289.49868658379677 171.07799222699344Q292.9950564627898 172.74020085799015 295.05848786678575 175.11887872648543Q297.12191927078163 177.49755659498072 297.95302358628 180.363433544975Q298.78412790177833 183.25796926446924 298.78412790177833 185.75128221096432L298.78412790177833 185.75128221096432Q298.78412790177833 187.18422068596144 298.66949282377857 189.64887486295655Q298.5835165152787 192.1421878094516 297.95302358628 193.77573767094836L297.95302358628 193.77573767094836Q296.5200851112828 192.54341058245078 295.25909925328534 191.941576422952Q294.02677216478776 191.31108349395325 292.16395214729147 191.31108349395325L292.16395214729147 191.31108349395325Q286.2029280913033 191.31108349395325 286.2029280913033 198.9343161809381L286.2029280913033 198.9343161809381L286.2029280913033 209.25147320091756Q284.5407194603066 209.68135474341673 282.07606528331155 209.68135474341673L282.07606528331155 209.68135474341673Q279.1815295638173 209.68135474341673 275.2552781423251 208.96488550591815Q271.32902672083287 208.21975749891962 267.8326568418398 205.9557147084241Q264.30762819334683 203.69167191792863 261.8429740163517 199.76542049643646Q259.3783198393566 195.83916907494424 259.3783198393566 189.2476520899573ZM304.5445405712669 319.0432191551994L304.5445405712669 245.99201569984453L307.03785351776196 245.99201569984453Q311.5659390987529 245.99201569984453 316.4092711442433 247.02373140184253Q321.28126195923363 248.05544710384046 325.2934896892256 250.83534774533493Q329.3057174192177 253.6152483868294 331.7990303657127 258.48723920181976Q334.2636845427078 263.3305712473101 334.2636845427078 270.7531925477954L334.2636845427078 270.7531925477954L334.2636845427078 294.2820423072486Q334.2636845427078 301.7046636077338 331.7990303657127 306.54799565322423Q329.3057174192177 311.3913276987146 325.2934896892256 314.1998871097089Q321.28126195923363 316.9797877512035 316.4092711442433 318.0115034532014Q311.5659390987529 319.0432191551994 307.03785351776196 319.0432191551994L307.03785351776196 319.0432191551994L304.5445405712669 319.0432191551994ZM259.3783198393566 299.6412322037379L259.3783198393566 299.6412322037379Q259.3783198393566 293.2503266052506 261.8429740163517 289.20944010575863Q264.30762819334683 285.19721237576664 267.8326568418398 282.9331695852711Q271.32902672083287 280.6691267947756 275.2552781423251 279.9239987877771Q279.1815295638173 279.20752955027854 282.07606528331155 279.20752955027854L282.07606528331155 279.20752955027854Q284.5407194603066 279.20752955027854 286.2029280913033 279.6374110927777L286.2029280913033 279.6374110927777L286.2029280913033 289.9545681127572Q286.2029280913033 297.577800799742 292.16395214729147 297.577800799742L292.16395214729147 297.577800799742Q294.02677216478776 297.577800799742 295.25909925328534 296.9473078707433Q296.5200851112828 296.3454737112445 297.95302358628 295.11314662274697L297.95302358628 295.11314662274697Q298.5835165152787 296.74669648424367 298.66949282377857 299.2400094307387Q298.78412790177833 301.7046636077338 298.78412790177833 303.13760208273095L298.78412790177833 303.13760208273095Q298.78412790177833 305.630915029226 297.95302358628 308.52545074872023Q297.12191927078163 311.3913276987146 295.1731229447855 313.77000556720986Q293.1956678492894 316.14868343570515 289.69929797029636 317.81089206670185Q286.2029280913033 319.44444192819856 280.815079425314 319.44444192819856L280.815079425314 319.44444192819856Q275.2552781423251 319.44444192819856 271.24305041233305 317.5816219107022Q267.2021639128411 315.74746066270586 264.6228746578462 312.9389012517115Q262.04358540285136 310.15900061021705 260.696623236354 306.662630731224Q259.3783198393566 303.13760208273095 259.3783198393566 299.6412322037379Z " fill="#55ffaa" transform="matrix(2.2499999313354513,0,0,2.2499999313354517,0,-249.99999084472722)"/><path d="MNaN 244.44444105360233 " fill="black" transform="matrix(2.2499999313354513,0,0,2.2499999313354517,0,-249.99999084472722)"/></g></svg>